<mxfile host="app.diagrams.net" modified="2023-10-18T09:28:50.351Z" agent="Mozilla/5.0 (X11; Linux x86_64; rv:109.0) Gecko/20100101 Firefox/118.0" etag="LJ15Myokd2MwR9z-CcHN" version="22.0.4" type="github">
  <diagram name="Page-1" id="1iA79TyCtK93nK60ap_h">
    <mxGraphModel dx="1434" dy="737" grid="1" gridSize="10" guides="1" tooltips="1" connect="1" arrows="1" fold="1" page="1" pageScale="1" pageWidth="827" pageHeight="1169" math="0" shadow="0">
      <root>
        <mxCell id="0" />
        <mxCell id="1" parent="0" />
        <mxCell id="lKAwWVuy-IsimusGvwi6-10" style="rounded=0;orthogonalLoop=1;jettySize=auto;html=1;endArrow=none;endFill=0;exitX=0.75;exitY=0.1;exitDx=0;exitDy=0;exitPerimeter=0;" parent="1" source="lKAwWVuy-IsimusGvwi6-1" target="lKAwWVuy-IsimusGvwi6-7" edge="1">
          <mxGeometry relative="1" as="geometry" />
        </mxCell>
        <mxCell id="lKAwWVuy-IsimusGvwi6-17" style="rounded=0;orthogonalLoop=1;jettySize=auto;html=1;endArrow=none;endFill=0;" parent="1" source="lKAwWVuy-IsimusGvwi6-1" target="lKAwWVuy-IsimusGvwi6-16" edge="1">
          <mxGeometry relative="1" as="geometry" />
        </mxCell>
        <mxCell id="lKAwWVuy-IsimusGvwi6-19" style="rounded=0;orthogonalLoop=1;jettySize=auto;html=1;endArrow=none;endFill=0;" parent="1" source="lKAwWVuy-IsimusGvwi6-1" target="lKAwWVuy-IsimusGvwi6-18" edge="1">
          <mxGeometry relative="1" as="geometry" />
        </mxCell>
        <mxCell id="lKAwWVuy-IsimusGvwi6-1" value="Utilisateur" style="shape=umlActor;verticalLabelPosition=bottom;verticalAlign=top;html=1;outlineConnect=0;" parent="1" vertex="1">
          <mxGeometry x="90" y="250" width="30" height="60" as="geometry" />
        </mxCell>
        <mxCell id="lKAwWVuy-IsimusGvwi6-2" value="" style="swimlane;startSize=0;" parent="1" vertex="1">
          <mxGeometry x="260" y="180" width="430" height="580" as="geometry">
            <mxRectangle x="310" y="180" width="50" height="40" as="alternateBounds" />
          </mxGeometry>
        </mxCell>
        <mxCell id="lKAwWVuy-IsimusGvwi6-3" value="&lt;div&gt;CommonUseCase: ChatSystem&lt;/div&gt;" style="text;html=1;align=center;verticalAlign=middle;resizable=0;points=[];autosize=1;strokeColor=none;fillColor=none;" parent="lKAwWVuy-IsimusGvwi6-2" vertex="1">
          <mxGeometry x="190" width="190" height="30" as="geometry" />
        </mxCell>
        <mxCell id="lKAwWVuy-IsimusGvwi6-7" value="Echange de messages textuels" style="ellipse;whiteSpace=wrap;html=1;" parent="lKAwWVuy-IsimusGvwi6-2" vertex="1">
          <mxGeometry x="50" y="10" width="120" height="80" as="geometry" />
        </mxCell>
        <mxCell id="lKAwWVuy-IsimusGvwi6-8" value="Echange de fichiers" style="ellipse;whiteSpace=wrap;html=1;" parent="lKAwWVuy-IsimusGvwi6-2" vertex="1">
          <mxGeometry x="155" y="80" width="120" height="80" as="geometry" />
        </mxCell>
        <mxCell id="lKAwWVuy-IsimusGvwi6-9" style="rounded=0;orthogonalLoop=1;jettySize=auto;html=1;entryX=0.5;entryY=1;entryDx=0;entryDy=0;dashed=1;strokeWidth=1;" parent="lKAwWVuy-IsimusGvwi6-2" source="lKAwWVuy-IsimusGvwi6-8" target="lKAwWVuy-IsimusGvwi6-7" edge="1">
          <mxGeometry relative="1" as="geometry" />
        </mxCell>
        <mxCell id="lKAwWVuy-IsimusGvwi6-12" value="&amp;lt;&amp;lt;extends&amp;gt;&amp;gt;" style="edgeLabel;html=1;align=center;verticalAlign=middle;resizable=0;points=[];" parent="lKAwWVuy-IsimusGvwi6-9" vertex="1" connectable="0">
          <mxGeometry x="-0.36" y="-5" relative="1" as="geometry">
            <mxPoint x="35" y="-9" as="offset" />
          </mxGeometry>
        </mxCell>
        <mxCell id="lKAwWVuy-IsimusGvwi6-16" value="Visualiser les medias" style="ellipse;whiteSpace=wrap;html=1;" parent="lKAwWVuy-IsimusGvwi6-2" vertex="1">
          <mxGeometry x="20" y="190" width="120" height="80" as="geometry" />
        </mxCell>
        <mxCell id="lKAwWVuy-IsimusGvwi6-18" value="Montrer les autres utilisateurs connectes" style="ellipse;whiteSpace=wrap;html=1;" parent="lKAwWVuy-IsimusGvwi6-2" vertex="1">
          <mxGeometry x="180" y="170" width="120" height="80" as="geometry" />
        </mxCell>
        <mxCell id="lKAwWVuy-IsimusGvwi6-23" value="Connexion au reseau" style="ellipse;whiteSpace=wrap;html=1;" parent="lKAwWVuy-IsimusGvwi6-2" vertex="1">
          <mxGeometry x="300" y="60" width="120" height="80" as="geometry" />
        </mxCell>
        <mxCell id="lKAwWVuy-IsimusGvwi6-45" value="" style="rounded=0;orthogonalLoop=1;jettySize=auto;html=1;dashed=1;" parent="lKAwWVuy-IsimusGvwi6-2" source="lKAwWVuy-IsimusGvwi6-40" target="lKAwWVuy-IsimusGvwi6-44" edge="1">
          <mxGeometry relative="1" as="geometry" />
        </mxCell>
        <mxCell id="lKAwWVuy-IsimusGvwi6-47" value="&amp;lt;&amp;lt;includes&amp;gt;&amp;gt;" style="edgeLabel;html=1;align=center;verticalAlign=middle;resizable=0;points=[];" parent="lKAwWVuy-IsimusGvwi6-45" vertex="1" connectable="0">
          <mxGeometry x="0.1074" y="-2" relative="1" as="geometry">
            <mxPoint x="37" y="-1" as="offset" />
          </mxGeometry>
        </mxCell>
        <mxCell id="lKAwWVuy-IsimusGvwi6-40" value="Installer un agent" style="ellipse;whiteSpace=wrap;html=1;" parent="lKAwWVuy-IsimusGvwi6-2" vertex="1">
          <mxGeometry x="190" y="260" width="120" height="80" as="geometry" />
        </mxCell>
        <mxCell id="lKAwWVuy-IsimusGvwi6-44" value="Configurer l&#39;agent" style="ellipse;whiteSpace=wrap;html=1;" parent="lKAwWVuy-IsimusGvwi6-2" vertex="1">
          <mxGeometry x="170" y="360" width="120" height="80" as="geometry" />
        </mxCell>
        <mxCell id="lKAwWVuy-IsimusGvwi6-49" value="Desinstaller un agent" style="ellipse;whiteSpace=wrap;html=1;" parent="lKAwWVuy-IsimusGvwi6-2" vertex="1">
          <mxGeometry x="30" y="420" width="120" height="80" as="geometry" />
        </mxCell>
        <mxCell id="lKAwWVuy-IsimusGvwi6-20" value="Reseau" style="shape=umlActor;verticalLabelPosition=bottom;verticalAlign=top;html=1;outlineConnect=0;" parent="1" vertex="1">
          <mxGeometry x="740" y="340" width="30" height="60" as="geometry" />
        </mxCell>
        <mxCell id="lKAwWVuy-IsimusGvwi6-21" style="rounded=0;orthogonalLoop=1;jettySize=auto;html=1;endArrow=none;endFill=0;" parent="1" source="lKAwWVuy-IsimusGvwi6-18" target="lKAwWVuy-IsimusGvwi6-20" edge="1">
          <mxGeometry relative="1" as="geometry" />
        </mxCell>
        <mxCell id="lKAwWVuy-IsimusGvwi6-24" style="rounded=0;orthogonalLoop=1;jettySize=auto;html=1;endArrow=none;endFill=0;" parent="1" source="lKAwWVuy-IsimusGvwi6-23" target="lKAwWVuy-IsimusGvwi6-20" edge="1">
          <mxGeometry relative="1" as="geometry" />
        </mxCell>
        <mxCell id="lKAwWVuy-IsimusGvwi6-11" style="rounded=0;orthogonalLoop=1;jettySize=auto;html=1;entryX=0.085;entryY=0.792;entryDx=0;entryDy=0;entryPerimeter=0;endArrow=none;endFill=0;exitX=1;exitY=0.3333333333333333;exitDx=0;exitDy=0;exitPerimeter=0;" parent="1" source="lKAwWVuy-IsimusGvwi6-1" target="lKAwWVuy-IsimusGvwi6-8" edge="1">
          <mxGeometry relative="1" as="geometry">
            <mxPoint x="120" y="290.47318611987384" as="sourcePoint" />
            <mxPoint x="422" y="300" as="targetPoint" />
          </mxGeometry>
        </mxCell>
        <mxCell id="lKAwWVuy-IsimusGvwi6-43" style="rounded=0;orthogonalLoop=1;jettySize=auto;html=1;endArrow=none;endFill=0;" parent="1" source="lKAwWVuy-IsimusGvwi6-39" target="lKAwWVuy-IsimusGvwi6-40" edge="1">
          <mxGeometry relative="1" as="geometry" />
        </mxCell>
        <mxCell id="lKAwWVuy-IsimusGvwi6-48" style="rounded=0;orthogonalLoop=1;jettySize=auto;html=1;entryX=0;entryY=0.5;entryDx=0;entryDy=0;endArrow=none;endFill=0;" parent="1" source="lKAwWVuy-IsimusGvwi6-39" target="lKAwWVuy-IsimusGvwi6-44" edge="1">
          <mxGeometry relative="1" as="geometry" />
        </mxCell>
        <mxCell id="lKAwWVuy-IsimusGvwi6-50" style="rounded=0;orthogonalLoop=1;jettySize=auto;html=1;endArrow=none;endFill=0;" parent="1" source="lKAwWVuy-IsimusGvwi6-39" target="lKAwWVuy-IsimusGvwi6-49" edge="1">
          <mxGeometry relative="1" as="geometry" />
        </mxCell>
        <mxCell id="lKAwWVuy-IsimusGvwi6-39" value="Administrateur" style="shape=umlActor;verticalLabelPosition=bottom;verticalAlign=top;html=1;outlineConnect=0;" parent="1" vertex="1">
          <mxGeometry x="100" y="440" width="30" height="60" as="geometry" />
        </mxCell>
      </root>
    </mxGraphModel>
  </diagram>
</mxfile>
